<?xml version="1.0" encoding="utf-8"?>
<!-- Generator: Adobe Illustrator 21.0.0, SVG Export Plug-In . SVG Version: 6.00 Build 0)  -->
<svg version="1.1" id="Capa_1" xmlns="http://www.w3.org/2000/svg" xmlns:xlink="http://www.w3.org/1999/xlink" x="0px" y="0px"
	 viewBox="0 0 473 48.8" style="enable-background:new 0 0 473 48.8;" xml:space="preserve">
<style type="text/css">
	.st0{fill:#02549D;}
</style>
<path class="st0" d="M114.7,47.5c-1.3,0-2.1-1.1-1.5-2.4l16.3-41.5c0.5-1.3,1.9-2.4,3.4-2.4h11.8c1.5,0,2.9,1.1,3.6,2.4l16.3,41.5
	c0.5,1.3-0.3,2.4-1.6,2.4h-11.6c-1.3,0-2.7-1.1-3.2-2.4l-0.3-1.3c-0.5-1.3-1.9-2.4-3.4-2.4H133c-1.4,0-2.9,1.1-3.2,2.4l-0.5,1.3
	c-0.3,1.3-1.8,2.4-3.2,2.4H114.7z M139.6,17.6c-0.5-1.3-1.1-1.3-1.6,0l-3.7,11.8c-0.3,1.3,0.5,2.3,1.8,2.3h5.5c1.4,0,2.3-1,1.8-2.3
	L139.6,17.6z"/>
<path class="st0" d="M4.6,47.5c-1.3,0-2.4-1.1-2.4-2.6V3.8c0-1.4,1.1-2.6,2.4-2.6h11.6c1.5,0,2.6,1.1,2.6,2.6v30.5
	c0,1.3,1.1,2.4,2.4,2.4h17.9c1.3,0,2.4,1.1,2.4,2.4v5.8c0,1.5-1.1,2.6-2.4,2.6L4.6,47.5L4.6,47.5z"/>
<path class="st0" d="M44.7,47.5c-1.5,0-2.1-1.1-1.6-2.4L59.4,3.6c0.5-1.3,2.1-2.4,3.4-2.4h11.9c1.3,0,2.9,1.1,3.4,2.4l16.3,41.5
	c0.5,1.3-0.2,2.4-1.6,2.4H81.3c-1.4,0-2.9-1.1-3.2-2.4l-0.5-1.3c-0.5-1.3-1.9-2.4-3.2-2.4H62.7c-1.3,0-2.8,1.1-3.2,2.4l-0.3,1.3
	c-0.5,1.3-1.9,2.4-3.2,2.4H44.7z M69.4,17.6c-0.5-1.3-1.1-1.3-1.4,0l-3.7,11.8c-0.5,1.3,0.3,2.3,1.8,2.3h5.5c1.3,0,2.1-1,1.8-2.3
	L69.4,17.6z"/>
<path class="st0" d="M200.5,24.4c0.8,1.1,1.4,1,1.3-0.3l-0.3-5.7c0-1.3-0.2-3.5-0.2-4.8V3.8c0-1.4,1.1-2.6,2.6-2.6h10.8
	c1.4,0,2.6,1.1,2.6,2.6v41.2c0,1.5-1.1,2.6-2.6,2.6h-10.5c-1.5,0-3.2-1-4-2.1L185,24.4c-0.8-1.1-1.3-1-1.3,0.5l0.3,5.5
	c0.2,1.3,0.2,3.5,0.2,5v9.6c0,1.5-1.1,2.6-2.4,2.6h-11c-1.3,0-2.4-1.1-2.4-2.6V3.8c0-1.4,1.1-2.6,2.4-2.6h10.6c1.3,0,3.1,1,3.9,2.1
	L200.5,24.4z"/>
<path class="st0" d="M275.4,24.2c0,15.9-11.6,24.6-26.6,24.6c-16,0-26.7-8.9-26.7-24.6c0-14.6,10.8-24,26.7-24
	C266.8,0.2,275.4,12,275.4,24.2z M238.8,24.2c0,6,2.1,13.4,10,13.4c7.1,0,10-5.7,10-13.4c0-6.2-2.9-13-10.2-12.7
	C241,11.6,238.8,18.4,238.8,24.2z"/>
<path class="st0" d="M312.1,24.4c0.8,1.1,1.5,1,1.3-0.3l-0.3-5.7c0-1.3-0.2-3.5-0.2-4.8V3.8c0-1.4,1.1-2.6,2.6-2.6h11
	c1.3,0,2.4,1.1,2.4,2.6v41.2c0,1.5-1.1,2.6-2.4,2.6h-10.6c-1.3,0-3.1-1-3.9-2.1l-15.2-21.1c-0.8-1.1-1.5-1-1.5,0.5l0.5,5.5v5v9.6
	c0,1.5-1.1,2.6-2.4,2.6h-11c-1.3,0-2.4-1.1-2.4-2.6V3.8c0-1.4,1.1-2.6,2.4-2.6H293c1.3,0,3.1,1,3.9,2.1L312.1,24.4z"/>
<path class="st0" d="M338.7,47.5c-1.3,0-2.4-1.1-2.4-2.6V3.8c0-1.4,1.1-2.6,2.4-2.6h11.6c1.5,0,2.4,1.1,2.4,2.6v41.2
	c0,1.5-1,2.6-2.4,2.6L338.7,47.5L338.7,47.5z"/>
<path class="st0" d="M362.1,47.5c-1.3,0-2.4-1.1-2.4-2.6V3.8c0-1.4,1.1-2.6,2.4-2.6h15.2c1.3,0,2.7,1.1,3.2,2.4l7.4,24
	c0.3,1.4,1,1.4,1.4,0l7.4-24c0.5-1.3,1.9-2.4,3.2-2.4h15.2c1.3,0,2.4,1.1,2.4,2.6v41.2c0,1.5-1.1,2.6-2.4,2.6h-10
	c-1.5,0-2.4-1.1-2.4-2.6v-9.1v-5v-2.3c0.2-1.3,0.3-3.5,0.3-4.9l0.3-3.4c0.2-1.4,0.3-2.6,0.3-2.6c-0.2,0-0.5,1.1-0.8,2.4l-7.8,25
	c-0.5,1.3-1.9,2.4-3.2,2.4h-6.6c-1.3,0-2.9-1.1-3.2-2.4l-7.7-25c-0.3-1.3-0.8-2.4-0.8-2.4s0,1.1,0.2,2.6l0.2,1.8
	c0.2,1.3,0.3,3.6,0.5,5v2.1c0.2,1.5,0.2,3.7,0.2,5v10.7c0,1.5-1.1,2.6-2.4,2.6L362.1,47.5L362.1,47.5z"/>
<path class="st0" d="M422.4,47.5c-1.4,0-2.1-1.1-1.6-2.4L437,3.6c0.5-1.3,2.1-2.4,3.4-2.4h11.9c1.5,0,2.9,1.1,3.4,2.4l16.3,41.5
	c0.5,1.3-0.2,2.4-1.5,2.4H459c-1.4,0-2.9-1.1-3.2-2.4l-0.5-1.3c-0.5-1.3-1.9-2.4-3.2-2.4h-11.6c-1.3,0-2.7,1.1-3.2,2.4l-0.3,1.3
	c-0.5,1.3-1.9,2.4-3.2,2.4H422.4z M447.1,17.6c-0.5-1.3-1.1-1.3-1.5,0l-3.7,11.8c-0.5,1.3,0.3,2.3,1.8,2.3h5.5c1.4,0,2.1-1,1.8-2.3
	L447.1,17.6z"/>
</svg>
